<?xml version="1.0" encoding="utf-8"?>
<!-- Generator: Adobe Illustrator 23.0.1, SVG Export Plug-In . SVG Version: 6.00 Build 0)  -->
<svg version="1.1" id="Layer_1" xmlns="http://www.w3.org/2000/svg" xmlns:xlink="http://www.w3.org/1999/xlink" x="0px" y="0px"
	 viewBox="0 0 240 227.53" style="enable-background:new 0 0 240 227.53;" xml:space="preserve">
<style type="text/css">
	.st0{fill:#EA0067;}
</style>
<g>
	<path class="st0" d="M187.86,227.1c-1.57,0-3.15-0.36-4.6-1.1l-1.76-0.89c-1.13-0.57-2.07-1.05-3.01-1.54l-12.99-6.87
		c-14.92-7.9-30.34-16.05-45.49-24.18c-13.07,7.04-26.37,14.08-39.24,20.89l-11.16,5.91c-2.75,1.46-5.51,2.9-8.39,4.41l-4.11,2.15
		c-3.21,1.68-7.07,1.53-10.13-0.41c-3.06-1.93-4.83-5.34-4.65-8.93c0.02-0.31,0.02-0.58,0.03-0.81c0.02-0.82,0.04-1.83,0.26-3.05
		l1.79-9.87c3.4-18.77,6.91-38.17,10.44-57.27c-10.89-10.23-21.86-20.69-32.47-30.8c-5.3-5.05-10.6-10.11-15.91-15.15
		c-0.16-0.11-0.47-0.3-0.7-0.45c-0.48-0.3-0.95-0.6-1.41-0.91C1.63,96.34,0,93.26,0,89.98v-0.91c0-4.99,3.72-9.22,8.71-9.91
		c5.96-0.81,11.91-1.64,17.87-2.46c17.4-2.41,35.4-4.9,53.16-7.12c7.47-15.59,15.19-31.35,22.66-46.6l6.15-12.57
		c0.55-1.13,1.13-2.14,1.74-3.22c0.27-0.48,0.57-1,0.89-1.58c1.78-3.21,5.14-5.21,8.87-5.19c3.69,0.01,7.08,2.02,8.84,5.24
		c0.34,0.62,0.65,1.19,0.95,1.71c0.64,1.15,1.25,2.24,1.84,3.44c2.52,5.14,5.03,10.29,7.54,15.43
		c6.92,14.16,14.06,28.79,21.19,43.15c18.98,2.72,38.25,5.33,56.92,7.86l13.97,1.89c4.99,0.68,8.72,4.91,8.72,9.91v0.91
		c0,3.58-1.93,6.88-5.05,8.67c-0.32,0.18-0.65,0.36-0.99,0.52l-4.82,4.58c-14.42,13.69-29.3,27.83-43.82,41.91
		c1.4,8.43,2.97,16.99,4.5,25.29c0.67,3.64,1.34,7.28,1.99,10.92c1.37,7.56,2.71,15.12,4.09,22.88l1.89,10.62
		c0.67,3.74-0.86,7.53-3.94,9.79C192.09,226.44,189.98,227.1,187.86,227.1z M79.39,70.22C79.39,70.22,79.39,70.22,79.39,70.22
		S79.39,70.22,79.39,70.22z M80.46,69.46C80.46,69.46,80.46,69.46,80.46,69.46C80.46,69.46,80.46,69.46,80.46,69.46z"/>
</g>
</svg>
